<svg id="Capa_1" enable-background="new 0 0 512 512" height="512" viewBox="0 0 512 512" width="512" xmlns="http://www.w3.org/2000/svg" xmlns:xlink="http://www.w3.org/1999/xlink"><linearGradient id="SVGID_1_" gradientUnits="userSpaceOnUse" x1="256" x2="256" y1="512" y2="0"><stop offset="0" stop-color="#00b59c"/><stop offset="1" stop-color="#9cffac"/></linearGradient><linearGradient id="SVGID_2_" gradientUnits="userSpaceOnUse" x1="285.4" x2="285.4" y1="391" y2="1.199"><stop offset="0" stop-color="#c3ffe8"/><stop offset=".9973" stop-color="#f0fff4"/></linearGradient><g><g><g><path d="m419.801 99.3-68.101-30-30-68.101c-1.8-.899-3.6-1.199-5.7-1.199h-210c-8.401 0-15 6.599-15 15v482c0 8.399 6.599 15 15 15h300c8.401 0 15-6.601 15-15v-392c0-2.1-.3-3.9-1.199-5.7z" fill="url(#SVGID_1_)"/></g></g><g><g><path d="m170.395 206.605c2.93 2.93 6.768 4.395 10.605 4.395s7.676-1.465 10.605-4.395l45-45c5.859-5.859 5.859-15.352 0-21.211s-15.352-5.859-21.211 0l-34.394 34.395-4.395-4.395c-5.859-5.859-15.352-5.859-21.211 0s-5.859 15.352 0 21.211zm175.605-25.605h-90c-8.291 0-15 6.709-15 15s6.709 15 15 15h90c8.291 0 15-6.709 15-15s-6.709-15-15-15zm-175.605 115.605c2.93 2.93 6.768 4.395 10.605 4.395s7.676-1.465 10.605-4.395l45-45c5.859-5.859 5.859-15.352 0-21.211s-15.352-5.859-21.211 0l-34.394 34.395-4.395-4.395c-5.859-5.859-15.352-5.859-21.211 0s-5.859 15.352 0 21.211zm175.605-25.605h-90c-8.291 0-15 6.709-15 15s6.709 15 15 15h90c8.291 0 15-6.709 15-15s-6.709-15-15-15zm-109.395 49.395c-5.859-5.859-15.352-5.859-21.211 0l-34.394 34.394-4.395-4.395c-5.859-5.859-15.352-5.859-21.211 0s-5.859 15.352 0 21.211l15 15c2.93 2.93 6.768 4.395 10.605 4.395s7.676-1.465 10.605-4.395l45-45c5.861-5.859 5.861-15.351.001-21.21zm109.395 40.605h-90c-8.291 0-15 6.709-15 15s6.709 15 15 15h90c8.291 0 15-6.709 15-15s-6.709-15-15-15zm-9.3-261.7h83.101c-.601-1.8-1.8-3.6-3.302-4.801l-90-90c-1.199-1.5-2.999-2.699-4.799-3.3v83.101c0 8.284 6.716 15 15 15z" fill="url(#SVGID_2_)"/></g></g></g></svg>